<?xml version="1.0" encoding="UTF-8"?>
<svg version="1.1" xmlns="http://www.w3.org/2000/svg" width="400" height="400">
<path d="M0 0 C0.79792969 0.71929687 1.59585938 1.43859375 2.41796875 2.1796875 C2.99466309 2.69370117 3.57135742 3.20771484 4.16552734 3.73730469 C6.17810187 5.5389038 8.17566546 7.35570403 10.16796875 9.1796875 C10.80677979 9.76121582 11.44559082 10.34274414 12.10375977 10.94189453 C16.14622515 14.71655918 19.46400136 18.48941866 22.41796875 23.1796875 C22.41796875 24.1696875 22.41796875 25.1596875 22.41796875 26.1796875 C16.80990898 27.1959131 11.65299623 27.13985864 5.98046875 26.7421875 C4.74006836 26.66387695 4.74006836 26.66387695 3.47460938 26.58398438 C1.45531397 26.45558987 -0.56342754 26.31853326 -2.58203125 26.1796875 C-2.91203125 25.1896875 -3.24203125 24.1996875 -3.58203125 23.1796875 C-4.90149642 22.48597727 -6.23733132 21.82311918 -7.58203125 21.1796875 C-8.90075418 19.97959446 -10.19008009 18.74681423 -11.45703125 17.4921875 C-21.86737276 8.08874787 -35.70088034 3.56767287 -49.29614258 1.12817383 C-50.28616776 0.94998611 -51.27619293 0.7717984 -52.29621887 0.58821106 C-53.05053696 0.45339828 -53.80485504 0.31858551 -54.58203125 0.1796875 C-54.57373511 1.21537841 -54.56543898 2.25106932 -54.55689144 3.3181448 C-54.35665506 28.57651255 -54.20899185 53.83477677 -54.1157217 79.09377193 C-54.06941214 91.30914035 -54.00633127 103.5239829 -53.90307617 115.73901367 C-53.81306994 126.39183297 -53.75523615 137.04427123 -53.7352348 147.69746023 C-53.72355189 153.33288977 -53.69630476 158.96722971 -53.63046074 164.60230827 C-53.56884787 169.91892738 -53.55063098 175.2340202 -53.56406212 180.55096245 C-53.56160922 182.49026316 -53.54401786 184.42962103 -53.50918198 186.36861038 C-53.27267902 200.22566892 -56.04610213 209.51202421 -63.58203125 221.1796875 C-67.24993881 219.95705165 -67.89213472 218.41256592 -69.64531755 215.09520477 C-74.99577475 204.10446678 -75.68412763 194.69471768 -75.49023438 182.61499023 C-75.48797187 180.61250907 -75.48925596 178.61002129 -75.49377441 176.60754395 C-75.49604908 171.2258936 -75.44935653 165.84569967 -75.39318275 160.46438479 C-75.34282227 154.82041433 -75.33844553 149.17640231 -75.32897949 143.53224182 C-75.30421654 132.86874178 -75.2387067 122.20590594 -75.15818357 111.54269701 C-75.06844475 99.39268864 -75.02469833 87.24264682 -74.98462009 75.09238899 C-74.90123082 50.12112173 -74.7607176 25.150442 -74.58203125 0.1796875 C-77.44668286 0.78967358 -80.30956766 1.40653033 -83.171875 2.02734375 C-83.97540405 2.19770142 -84.77893311 2.36805908 -85.60681152 2.5435791 C-92.3066748 4.00570867 -98.41507831 6.15648952 -104.58203125 9.1796875 C-105.36707031 9.55867188 -106.15210938 9.93765625 -106.9609375 10.328125 C-113.82886069 13.88750085 -120.35612906 18.62292355 -125.5625 24.36328125 C-129.98036465 28.33679588 -136.27440408 27.29985258 -141.89453125 27.2421875 C-143.1484668 27.23541992 -143.1484668 27.23541992 -144.42773438 27.22851562 C-146.47919774 27.21679298 -148.53062398 27.19885953 -150.58203125 27.1796875 C-151.16113281 25.31665039 -151.16113281 25.31665039 -151.58203125 23.1796875 C-149.43589341 19.46368957 -146.43850607 16.36799769 -143.58203125 13.1796875 C-142.77121094 12.27347656 -141.96039063 11.36726563 -141.125 10.43359375 C-106.6314716 -26.0250832 -39.44829448 -33.11520272 0 0 Z " fill="#7F8084" transform="translate(264.58203125,98.8203125)"/>
<path d="M0 0 C10.15266151 -0.02312392 20.3053168 -0.04091534 30.45799923 -0.05181217 C35.17179733 -0.05704089 39.88557747 -0.06413834 44.59936523 -0.07543945 C49.14455404 -0.08626873 53.68972552 -0.09227692 58.23492622 -0.09487724 C59.97294958 -0.09673142 61.71097194 -0.10035189 63.44898796 -0.10573006 C65.87478595 -0.11294103 68.30051146 -0.11399092 70.72631836 -0.11352539 C71.45208069 -0.11712067 72.17784302 -0.12071594 72.92559814 -0.12442017 C77.88594784 -0.11405216 77.88594784 -0.11405216 79 1 C79.0966888 2.97428234 79.12187075 4.95207831 79.12025452 6.9287262 C79.12231651 8.86183655 79.12231651 8.86183655 79.12442017 10.83399963 C79.12088055 12.27548241 79.11724573 13.71696495 79.11352539 15.15844727 C79.11324353 16.66596474 79.11340123 18.17348236 79.1139679 19.68099976 C79.11425591 23.78619344 79.10835861 27.89135815 79.10139394 31.99654508 C79.09516099 36.2820326 79.09455665 40.56752072 79.09336853 44.85301208 C79.09025504 52.97386652 79.08204141 61.09470756 79.07201904 69.21555609 C79.06085845 78.45844874 79.05534759 87.70134202 79.05032361 96.94423974 C79.03985881 115.9628341 79.02225903 134.98141597 79 154 C74.96656348 152.18511043 73.53403312 150.18228105 71.125 146.4375 C63.06697384 134.31598055 53.41910192 123.38445607 43.51171875 112.75390625 C40.29142188 109.22309864 37.28914905 105.54473872 34.296875 101.8203125 C32.28068689 99.34465296 30.21151894 96.92666739 28.11645508 94.51782227 C10.27165018 73.88008382 -6.49152641 50.76798699 -5.20117188 22.23535156 C-4.56090893 15.12097349 -3.20223063 6.40446127 0 0 Z M16 20 C13.65444969 41.10995279 23.89272742 56.2623537 36.46972656 72.10400391 C39.70238171 76.10923682 43.01683013 80.04059004 46.37890625 83.9375 C49.79063031 87.89606418 53.05160081 91.97361596 56.3203125 96.05078125 C56.87460938 96.69402344 57.42890625 97.33726562 58 98 C58.33 98 58.66 98 59 98 C59 72.26 59 46.52 59 20 C44.81 20 30.62 20 16 20 Z " fill="#035F96" transform="translate(106,136)"/>
<path d="M0 0 C1.08864349 0.00539291 1.08864349 0.00539291 2.19927979 0.01089478 C2.96020432 0.01074875 3.72112885 0.01060272 4.50511169 0.01045227 C7.03202113 0.01115155 9.55885776 0.01894462 12.08575439 0.02676392 C13.83310404 0.02862804 15.58045421 0.03005197 17.32780457 0.03105164 C21.93591749 0.03487724 26.54399909 0.04470788 31.15209961 0.05575562 C35.85068335 0.06596883 40.54927214 0.07054906 45.24786377 0.07559204 C54.47378902 0.08633011 63.69969098 0.10340704 72.92559814 0.12442017 C73.58231687 2.20503074 74.23473059 4.28700047 74.88531494 6.36953735 C75.24908737 7.52878723 75.6128598 8.68803711 75.98765564 9.88241577 C77.0326726 13.49452372 77.53987265 16.63118521 77.73809814 20.37442017 C77.80641846 21.45207642 77.87473877 22.52973267 77.94512939 23.64004517 C77.92559814 26.12442017 77.92559814 26.12442017 76.92559814 27.12442017 C73.93380091 27.27769451 70.9810349 27.35607266 67.98809814 27.37442017 C67.15085205 27.39504517 66.31360596 27.41567017 65.45098877 27.43692017 C64.64983643 27.44207642 63.84868408 27.44723267 63.02325439 27.45254517 C61.91735962 27.46656372 61.91735962 27.46656372 60.78912354 27.48086548 C60.17416016 27.36323853 59.55919678 27.24561157 58.92559814 27.12442017 C56.92559814 24.12442017 56.92559814 24.12442017 56.92559814 20.12442017 C42.73559814 20.12442017 28.54559814 20.12442017 13.92559814 20.12442017 C13.92559814 28.04442017 13.92559814 35.96442017 13.92559814 44.12442017 C34.05559814 44.12442017 54.18559814 44.12442017 74.92559814 44.12442017 C74.04968406 49.37990467 72.74044675 53.12446769 70.36309814 57.74942017 C70.00449707 58.45308716 69.645896 59.15675415 69.27642822 59.88174438 C63.50593987 70.98864106 56.079997 80.76384525 48.25421143 90.47549438 C47.03344861 91.99056826 45.82091342 93.51226185 44.60919189 95.03457642 C40.27324013 100.42542879 35.72755638 105.57388433 31.01812744 110.6378479 C27.16873898 114.79885674 23.58239904 119.13927676 20.03106689 123.55801392 C18.10501601 125.90572344 16.10778168 128.14197962 14.05059814 130.37442017 C9.40061316 135.52963491 5.39948096 141.14494616 1.34356689 146.76895142 C0.92252686 147.35112427 0.50148682 147.93329712 0.06768799 148.53311157 C-0.89235132 149.8707636 -1.83506598 151.22082569 -2.77362061 152.57363892 C-3.20287842 153.08539673 -3.63213623 153.59715454 -4.07440186 154.12442017 C-4.73440186 154.12442017 -5.39440186 154.12442017 -6.07440186 154.12442017 C-6.0975271 144.88444465 -6.11531786 135.64447903 -6.12621403 126.40448093 C-6.13144246 122.11442102 -6.13853938 117.82438083 -6.14984131 113.53433228 C-6.16067161 109.39762616 -6.16667899 105.26093908 -6.1692791 101.12421989 C-6.17113309 99.54249713 -6.17475321 97.96077545 -6.18013191 96.37906075 C-6.18734425 94.17119179 -6.18839272 91.96340244 -6.18792725 89.75552368 C-6.19014786 88.49643692 -6.19236847 87.23735016 -6.19465637 85.94010925 C-6.07440186 83.12442017 -6.07440186 83.12442017 -5.07440186 82.12442017 C-3.74396561 82.02604807 -2.40846841 81.99363424 -1.07440186 81.99160767 C-0.27002686 81.9903186 0.53434814 81.98902954 1.36309814 81.98770142 C2.20872314 81.9915686 3.05434814 81.99543579 3.92559814 81.99942017 C5.19403564 81.99361938 5.19403564 81.99361938 6.48809814 81.98770142 C7.29247314 81.98899048 8.09684814 81.99027954 8.92559814 81.99160767 C9.66809814 81.9927356 10.41059814 81.99386353 11.17559814 81.99502563 C12.92559814 82.12442017 12.92559814 82.12442017 13.92559814 83.12442017 C14.16087587 85.47429279 14.33946231 87.82998055 14.48809814 90.18692017 C14.57188721 91.47727173 14.65567627 92.76762329 14.74200439 94.09707642 C14.80259033 95.09609985 14.86317627 96.09512329 14.92559814 97.12442017 C21.17454328 90.31410407 27.13238244 83.3251425 32.92559814 76.12442017 C33.69903564 75.17309204 34.47247314 74.22176392 35.26934814 73.24160767 C36.00153564 72.33668579 36.73372314 71.43176392 37.48809814 70.49942017 C38.14938721 69.68215454 38.81067627 68.86488892 39.49200439 68.02285767 C41.02603548 66.38790247 41.02603548 66.38790247 40.92559814 65.12442017 C40.06449181 65.10895897 40.06449181 65.10895897 39.18598938 65.09318542 C33.23294152 64.98534582 27.28005199 64.8707304 21.32720947 64.75210571 C19.10295918 64.70868429 16.878674 64.66701472 14.65435791 64.62710571 C11.46471619 64.5695771 8.27525134 64.50583332 5.08575439 64.44082642 C4.08472183 64.42411392 3.08368927 64.40740143 2.05232239 64.3901825 C1.13144333 64.37023727 0.21056427 64.35029205 -0.73822021 64.32974243 C-1.55318466 64.31419815 -2.36814911 64.29865387 -3.20780945 64.28263855 C-5.07440186 64.12442017 -5.07440186 64.12442017 -6.07440186 63.12442017 C-6.17361048 61.19680199 -6.2023955 59.26552663 -6.20379639 57.33535767 C-6.20694855 56.09737427 -6.21010071 54.85939087 -6.21334839 53.58389282 C-6.21155861 52.22240158 -6.20950765 50.86091066 -6.20721436 49.49942017 C-6.20788745 48.11318952 -6.20885752 46.726959 -6.21011353 45.34072876 C-6.21159025 42.43202595 -6.20943675 39.5233538 -6.20477295 36.61465454 C-6.19907566 32.87845418 -6.2023548 29.14232565 -6.20834541 25.40612793 C-6.21195171 22.54262751 -6.21081213 19.67914424 -6.20821762 16.81564331 C-6.20754854 15.43767285 -6.20837612 14.05970085 -6.21069717 12.68173218 C-6.21322477 10.75898263 -6.20869209 8.83622765 -6.20379639 6.91348267 C-6.20300079 5.81729614 -6.2022052 4.72110962 -6.2013855 3.59170532 C-5.97293918 -0.84699408 -3.93404729 0.00822285 0 0 Z " fill="#035F96" transform="translate(221.07440185546875,135.87557983398438)"/>
<path d="M0 0 C20.24849057 -1.28561845 44.7858574 7.72362036 60.2109375 20.88671875 C61.32477559 22.00811683 62.41334648 23.15547171 63.46875 24.33203125 C65.16695233 26.18185879 67.00120743 27.71505863 68.9375 29.3125 C73.56720621 33.30799988 77.63757363 37.88481946 81 43 C81 43.99 81 44.98 81 46 C75.39194023 47.0162256 70.23502748 46.96017114 64.5625 46.5625 C63.32209961 46.48418945 63.32209961 46.48418945 62.05664062 46.40429688 C60.03734522 46.27590237 58.01860371 46.13884576 56 46 C55.67 45.01 55.34 44.02 55 43 C53.68053483 42.30628977 52.34469993 41.64343168 51 41 C49.68127707 39.79990696 48.39195116 38.56712673 47.125 37.3125 C36.71465849 27.90906037 22.88115091 23.38798537 9.28588867 20.94848633 C8.29586349 20.77029861 7.30583832 20.5921109 6.28581238 20.40852356 C5.53149429 20.27371078 4.77717621 20.13889801 4 20 C4.00829614 21.03569091 4.01659227 22.07138182 4.02513981 23.1384573 C4.22537619 48.39682505 4.3730394 73.65508927 4.46630955 98.91408443 C4.51261911 111.12945285 4.57569998 123.3442954 4.67895508 135.55932617 C4.76896131 146.21214547 4.8267951 156.86458373 4.84679645 167.51777273 C4.85847936 173.15320227 4.88572649 178.78754221 4.95157051 184.42262077 C5.01318338 189.73923988 5.03140027 195.0543327 5.01796913 200.37127495 C5.02042203 202.31057566 5.03801339 204.24993353 5.07284927 206.18892288 C5.30935223 220.04598142 2.53592912 229.33233671 -5 241 C-8.66790756 239.77736415 -9.31010347 238.23287842 -11.0632863 234.91551727 C-16.4137435 223.92477928 -17.10209638 214.51503018 -16.90820312 202.43530273 C-16.90594062 200.43282157 -16.90722471 198.43033379 -16.91174316 196.42785645 C-16.91401783 191.0462061 -16.86732528 185.66601217 -16.8111515 180.28469729 C-16.76079102 174.64072683 -16.75641428 168.99671481 -16.74694824 163.35255432 C-16.72218529 152.68905428 -16.65667545 142.02621844 -16.57615232 131.36300951 C-16.4864135 119.21300114 -16.44266708 107.06295932 -16.40258884 94.91270149 C-16.31919957 69.94143423 -16.17868635 44.9707545 -16 20 C-18.86465161 20.60998608 -21.72753641 21.22684283 -24.58984375 21.84765625 C-25.3933728 22.01801392 -26.19690186 22.18837158 -27.02478027 22.3638916 C-33.72464355 23.82602117 -39.83304706 25.97680202 -46 29 C-46.78503906 29.37898438 -47.57007813 29.75796875 -48.37890625 30.1484375 C-55.24682944 33.70781335 -61.77409781 38.44323605 -66.98046875 44.18359375 C-70.82807782 47.64420925 -75.35730076 47.11695274 -80.3125 47.0625 C-81.38113281 47.05347656 -82.44976562 47.04445312 -83.55078125 47.03515625 C-84.35902344 47.02355469 -85.16726562 47.01195312 -86 47 C-86.33 46.34 -86.66 45.68 -87 45 C-86.01 45.00902344 -85.02 45.01804688 -84 45.02734375 C-75.14698308 45.05150366 -75.14698308 45.05150366 -67.625 40.875 C-66.40334942 39.5959214 -65.19495182 38.30405612 -64 37 C-54.2840042 28.3168069 -42.70709105 22.71339388 -30 20 C-29.11183594 19.79632813 -28.22367188 19.59265625 -27.30859375 19.3828125 C-22.75727075 18.39250973 -18.67017605 17.96600454 -14 18 C-14.00056554 19.56679772 -14.00056554 19.56679772 -14.0011425 21.16524792 C-14.00895653 46.61442208 -13.98228264 72.06338349 -13.9197216 97.51248455 C-13.89026049 109.8196473 -13.8718892 122.12663776 -13.87988281 134.43383789 C-13.88682394 145.16436728 -13.87269467 155.89462988 -13.83356392 166.62509376 C-13.81358383 172.30364276 -13.80395138 177.98177315 -13.81957626 183.66034508 C-13.83397071 189.01296465 -13.82004274 194.36478687 -13.78504753 199.71730423 C-13.77712502 201.67431153 -13.77926168 203.63139154 -13.79260826 205.58836937 C-13.86506968 217.20202738 -13.14540405 225.81468822 -7 236 C-6.34 236 -5.68 236 -5 236 C-1.76340806 230.798474 -1.76340806 230.798474 0 225 C0.66 225 1.32 225 2 225 C2 156.69 2 88.38 2 18 C20.15893887 20.13634575 34.9267798 23.04740202 49 35 C49.96486328 35.79083984 49.96486328 35.79083984 50.94921875 36.59765625 C51.80966797 37.32275391 51.80966797 37.32275391 52.6875 38.0625 C53.26886719 38.54847656 53.85023438 39.03445312 54.44921875 39.53515625 C56 41 56 41 58 44 C60.21932277 44.50776044 60.21932277 44.50776044 62.7890625 44.51171875 C63.73007812 44.54716797 64.67109375 44.58261719 65.640625 44.61914062 C66.62546875 44.64169922 67.6103125 44.66425781 68.625 44.6875 C69.61757813 44.72166016 70.61015625 44.75582031 71.6328125 44.79101562 C74.08842906 44.87365657 76.54368141 44.94275127 79 45 C78.566875 44.51789063 78.13375 44.03578125 77.6875 43.5390625 C77.130625 42.90742187 76.57375 42.27578125 76 41.625 C75.443125 40.99851563 74.88625 40.37203125 74.3125 39.7265625 C73 38 73 38 73 36 C72.34 36 71.68 36 71 36 C69.74772516 34.52295788 68.49833478 33.04172601 67.31640625 31.5078125 C65.88235909 29.73237056 65.88235909 29.73237056 63 28 C63 27.34 63 26.68 63 26 C62.43925781 25.75121094 61.87851562 25.50242187 61.30078125 25.24609375 C58.62320438 23.79592903 56.51180867 22.02809646 54.1875 20.0625 C50.24971074 16.87093902 46.78653798 14.76346136 42 13 C40.28909967 12.19291939 38.58103252 11.37982005 36.875 10.5625 C26.83496904 6.02123259 17.01589741 3.60245109 6.1171875 2.4921875 C3 2 3 2 0 0 Z " fill="#696269" transform="translate(206,79)"/>
<path d="M0 0 C10.15266151 -0.02312392 20.3053168 -0.04091534 30.45799923 -0.05181217 C35.17179733 -0.05704089 39.88557747 -0.06413834 44.59936523 -0.07543945 C49.14455404 -0.08626873 53.68972552 -0.09227692 58.23492622 -0.09487724 C59.97294958 -0.09673142 61.71097194 -0.10035189 63.44898796 -0.10573006 C65.87478595 -0.11294103 68.30051146 -0.11399092 70.72631836 -0.11352539 C71.45208069 -0.11712067 72.17784302 -0.12071594 72.92559814 -0.12442017 C77.88594784 -0.11405216 77.88594784 -0.11405216 79 1 C79.0966888 2.97428234 79.12187075 4.95207831 79.12025452 6.9287262 C79.12231651 8.86183655 79.12231651 8.86183655 79.12442017 10.83399963 C79.12088055 12.27548241 79.11724573 13.71696495 79.11352539 15.15844727 C79.11324353 16.66596474 79.11340123 18.17348236 79.1139679 19.68099976 C79.11425591 23.78619344 79.10835861 27.89135815 79.10139394 31.99654508 C79.09516099 36.2820326 79.09455665 40.56752072 79.09336853 44.85301208 C79.09025504 52.97386652 79.08204141 61.09470756 79.07201904 69.21555609 C79.06085845 78.45844874 79.05534759 87.70134202 79.05032361 96.94423974 C79.03985881 115.9628341 79.02225903 134.98141597 79 154 C74.96656348 152.18511043 73.53403312 150.18228105 71.125 146.4375 C63.06697384 134.31598055 53.41910192 123.38445607 43.51171875 112.75390625 C40.29142188 109.22309864 37.28914905 105.54473872 34.296875 101.8203125 C32.28068689 99.34465296 30.21151894 96.92666739 28.11645508 94.51782227 C-4.06204691 57.30298514 -4.06204691 57.30298514 -3 35 C-0.70934041 37.29065959 -0.64205185 38.14768889 -0.125 41.25 C0.53552004 44.54211576 1.08540238 46.12810357 3 49 C5.56157343 52.84236015 6.24000287 56.50001702 7 61 C8.485 60.505 8.485 60.505 10 60 C10 62.31 10 64.62 10 67 C11.98 66.505 11.98 66.505 14 66 C14.2475 67.010625 14.495 68.02125 14.75 69.0625 C16.65064697 75.62237182 20.16359687 80.47346699 24.73046875 85.421875 C26 87 26 87 27 90 C28.010625 90.825 29.02125 91.65 30.0625 92.5 C31.5165625 93.7375 31.5165625 93.7375 33 95 C33 95.99 33 96.98 33 98 C34.65 98 36.3 98 38 98 C38.37125 98.825 38.7425 99.65 39.125 100.5 C42.51895431 106.83538137 46.34597484 111.56846676 52 116 C52.68449219 117.14855469 52.68449219 117.14855469 53.3828125 118.3203125 C55.59709205 121.98938441 58.44242139 124.88872204 61.35546875 128.01171875 C63 130 63 130 63 132 C63.66 132 64.32 132 65 132 C66.3671875 133.7578125 66.3671875 133.7578125 67.875 136.125 C68.66777344 137.35089844 68.66777344 137.35089844 69.4765625 138.6015625 C69.97929687 139.39304687 70.48203125 140.18453125 71 141 C73.38131362 145.12762639 73.38131362 145.12762639 77 148 C77 99.82 77 51.64 77 2 C39.84714863 1.77560958 39.84714863 1.77560958 2 5 C1.87625 5.53625 1.7525 6.0725 1.625 6.625 C1 9 1 9 0.03125 11.53125 C-1.28520477 15.95932514 -1.70356451 20.28757111 -2.125 24.875 C-2.21136719 25.75414062 -2.29773438 26.63328125 -2.38671875 27.5390625 C-2.59734307 29.69211108 -2.79952708 31.84598249 -3 34 C-3.33 34 -3.66 34 -4 34 C-4.65853659 9.31707317 -4.65853659 9.31707317 0 0 Z " fill="#134F6F" transform="translate(106,136)"/>
<path d="M0 0 C1.08864349 0.00539291 1.08864349 0.00539291 2.19927979 0.01089478 C2.96020432 0.01074875 3.72112885 0.01060272 4.50511169 0.01045227 C7.03202113 0.01115155 9.55885776 0.01894462 12.08575439 0.02676392 C13.83310404 0.02862804 15.58045421 0.03005197 17.32780457 0.03105164 C21.93591749 0.03487724 26.54399909 0.04470788 31.15209961 0.05575562 C35.85068335 0.06596883 40.54927214 0.07054906 45.24786377 0.07559204 C54.47378902 0.08633011 63.69969098 0.10340704 72.92559814 0.12442017 C73.58231687 2.20503074 74.23473059 4.28700047 74.88531494 6.36953735 C75.24908737 7.52878723 75.6128598 8.68803711 75.98765564 9.88241577 C77.0326726 13.49452372 77.53987265 16.63118521 77.73809814 20.37442017 C77.80641846 21.45207642 77.87473877 22.52973267 77.94512939 23.64004517 C77.92559814 26.12442017 77.92559814 26.12442017 76.92559814 27.12442017 C73.93380091 27.27769451 70.9810349 27.35607266 67.98809814 27.37442017 C67.15085205 27.39504517 66.31360596 27.41567017 65.45098877 27.43692017 C64.64983643 27.44207642 63.84868408 27.44723267 63.02325439 27.45254517 C61.91735962 27.46656372 61.91735962 27.46656372 60.78912354 27.48086548 C60.17416016 27.36323853 59.55919678 27.24561157 58.92559814 27.12442017 C56.92559814 24.12442017 56.92559814 24.12442017 56.92559814 20.12442017 C42.73559814 20.12442017 28.54559814 20.12442017 13.92559814 20.12442017 C13.92559814 28.04442017 13.92559814 35.96442017 13.92559814 44.12442017 C34.05559814 44.12442017 54.18559814 44.12442017 74.92559814 44.12442017 C74.05586131 49.34284116 72.76342853 52.94592212 70.36309814 57.49942017 C70.03374268 58.14008423 69.70438721 58.78074829 69.36505127 59.44082642 C68.55920332 61.00580649 67.74341321 62.56566038 66.92559814 64.12442017 C65.90197096 61.46052291 65.82135756 60.3888353 66.88653564 57.68692017 C67.35317627 56.84129517 67.81981689 55.99567017 68.30059814 55.12442017 C70.01832177 51.97685956 71.04192817 49.65910008 71.92559814 46.12442017 C52.12559814 46.12442017 32.32559814 46.12442017 11.92559814 46.12442017 C11.01822569 42.49493036 10.87106442 40.152458 11.04669189 36.48379517 C11.11134644 35.03698364 11.11134644 35.03698364 11.17730713 33.5609436 C11.23861816 32.34439087 11.2999292 31.12783813 11.36309814 29.87442017 C11.64153564 24.05817017 11.64153564 24.05817017 11.92559814 18.12442017 C27.43559814 18.12442017 42.94559814 18.12442017 58.92559814 18.12442017 C59.42059814 21.58942017 59.42059814 21.58942017 59.92559814 25.12442017 C65.20559814 25.12442017 70.48559814 25.12442017 75.92559814 25.12442017 C75.44714429 22.39512681 74.96785992 19.66598365 74.48809814 16.93692017 C74.2860376 15.78353149 74.2860376 15.78353149 74.07989502 14.60684204 C73.94776611 13.85596313 73.81563721 13.10508423 73.67950439 12.33145142 C73.55905762 11.64542847 73.43861084 10.95940552 73.31451416 10.25259399 C72.8793392 7.87128822 72.40034481 5.49815352 71.92559814 3.12442017 C46.84559814 2.79442017 21.76559814 2.46442017 -4.07440186 2.12442017 C-4.07440186 21.92442017 -4.07440186 41.72442017 -4.07440186 62.12442017 C11.43559814 62.12442017 26.94559814 62.12442017 42.92559814 62.12442017 C42.92559814 62.78442017 42.92559814 63.44442017 42.92559814 64.12442017 C43.58559814 64.12442017 44.24559814 64.12442017 44.92559814 64.12442017 C44.92559814 65.11442017 44.92559814 66.10442017 44.92559814 67.12442017 C44.26559814 67.12442017 43.60559814 67.12442017 42.92559814 67.12442017 C42.92559814 67.78442017 42.92559814 68.44442017 42.92559814 69.12442017 C41.96362545 70.16105343 40.95605703 71.15583641 39.92559814 72.12442017 C38.89160497 73.25839232 37.87090735 74.40461497 36.86309814 75.56192017 C36.35649658 76.1381311 35.84989502 76.71434204 35.32794189 77.30801392 C33.85314163 79.08528275 33.85314163 79.08528275 32.92950439 81.22207642 C31.92559814 83.12442017 31.92559814 83.12442017 28.92559814 85.12442017 C27.93559814 84.79442017 26.94559814 84.46442017 25.92559814 84.12442017 C26.42188721 83.57914673 26.91817627 83.03387329 27.42950439 82.47207642 C35.85111215 74.53660796 35.85111215 74.53660796 40.92559814 65.12442017 C40.06449181 65.10895897 40.06449181 65.10895897 39.18598938 65.09318542 C33.23294152 64.98534582 27.28005199 64.8707304 21.32720947 64.75210571 C19.10295918 64.70868429 16.878674 64.66701472 14.65435791 64.62710571 C11.46471619 64.5695771 8.27525134 64.50583332 5.08575439 64.44082642 C4.08472183 64.42411392 3.08368927 64.40740143 2.05232239 64.3901825 C1.13144333 64.37023727 0.21056427 64.35029205 -0.73822021 64.32974243 C-1.55318466 64.31419815 -2.36814911 64.29865387 -3.20780945 64.28263855 C-5.07440186 64.12442017 -5.07440186 64.12442017 -6.07440186 63.12442017 C-6.17361048 61.19680199 -6.2023955 59.26552663 -6.20379639 57.33535767 C-6.20694855 56.09737427 -6.21010071 54.85939087 -6.21334839 53.58389282 C-6.21155861 52.22240158 -6.20950765 50.86091066 -6.20721436 49.49942017 C-6.20788745 48.11318952 -6.20885752 46.726959 -6.21011353 45.34072876 C-6.21159025 42.43202595 -6.20943675 39.5233538 -6.20477295 36.61465454 C-6.19907566 32.87845418 -6.2023548 29.14232565 -6.20834541 25.40612793 C-6.21195171 22.54262751 -6.21081213 19.67914424 -6.20821762 16.81564331 C-6.20754854 15.43767285 -6.20837612 14.05970085 -6.21069717 12.68173218 C-6.21322477 10.75898263 -6.20869209 8.83622765 -6.20379639 6.91348267 C-6.20300079 5.81729614 -6.2022052 4.72110962 -6.2013855 3.59170532 C-5.97293918 -0.84699408 -3.93404729 0.00822285 0 0 Z " fill="#134B70" transform="translate(221.07440185546875,135.87557983398438)"/>
<path d="M0 0 C0.99 0.33 1.98 0.66 3 1 C-2.44311929 9.51559637 -8.33600129 17.48898295 -14.67138672 25.35107422 C-15.89214953 26.8661481 -17.10468472 28.38784168 -18.31640625 29.91015625 C-22.65235802 35.30100862 -27.19804177 40.44946416 -31.9074707 45.51342773 C-35.75685917 49.67443657 -39.34319911 54.01485659 -42.89453125 58.43359375 C-44.82058214 60.78130327 -46.81781647 63.01755945 -48.875 65.25 C-53.52498499 70.40521474 -57.52611718 76.02052599 -61.58203125 81.64453125 C-62.00307129 82.2267041 -62.42411133 82.80887695 -62.85791016 83.40869141 C-63.81794946 84.74634343 -64.76066412 86.09640552 -65.69921875 87.44921875 C-66.12847656 87.96097656 -66.55773437 88.47273438 -67 89 C-67.66 89 -68.32 89 -69 89 C-69.02312524 79.76002448 -69.04091601 70.52005886 -69.05181217 61.28006077 C-69.05704061 56.99000085 -69.06413753 52.69996067 -69.07543945 48.40991211 C-69.08626975 44.273206 -69.09227714 40.13651892 -69.09487724 35.99979973 C-69.09673124 34.41807696 -69.10035136 32.83635529 -69.10573006 31.25464058 C-69.1129424 29.04677162 -69.11399086 26.83898227 -69.11352539 24.63110352 C-69.115746 23.37201675 -69.11796661 22.11292999 -69.12025452 20.81568909 C-69 18 -69 18 -68 17 C-66.66956375 16.9016279 -65.33406656 16.86921408 -64 16.8671875 C-63.195625 16.86589844 -62.39125 16.86460937 -61.5625 16.86328125 C-60.716875 16.86714844 -59.87125 16.87101562 -59 16.875 C-57.7315625 16.86919922 -57.7315625 16.86919922 -56.4375 16.86328125 C-55.633125 16.86457031 -54.82875 16.86585938 -54 16.8671875 C-53.2575 16.86831543 -52.515 16.86944336 -51.75 16.87060547 C-50 17 -50 17 -49 18 C-48.76472227 20.34987262 -48.58613583 22.70556039 -48.4375 25.0625 C-48.31181641 26.99802734 -48.31181641 26.99802734 -48.18359375 28.97265625 C-48.12300781 29.97167969 -48.06242187 30.97070312 -48 32 C-47.30132812 31.2059375 -46.60265625 30.411875 -45.8828125 29.59375 C-44.963832 28.56224127 -44.04454527 27.5310053 -43.125 26.5 C-42.43470703 25.71302734 -42.43470703 25.71302734 -41.73046875 24.91015625 C-40.52827924 23.56858245 -39.26754054 22.28000815 -38 21 C-37.34 21 -36.68 21 -36 21 C-36.8125 23.4375 -36.8125 23.4375 -38 26 C-38.99 26.33 -39.98 26.66 -41 27 C-41 27.99 -41 28.98 -41 30 C-42.42578125 31.640625 -42.42578125 31.640625 -44.3125 33.25 C-44.92738281 33.79140625 -45.54226562 34.3328125 -46.17578125 34.890625 C-46.77777344 35.25671875 -47.37976563 35.6228125 -48 36 C-49.485 35.505 -49.485 35.505 -51 35 C-51.33 30.05 -51.66 25.1 -52 20 C-58.93 19.505 -58.93 19.505 -66 19 C-66.33 39.46 -66.66 59.92 -67 81 C-60.31763434 75.45479645 -60.31763434 75.45479645 -55.625 69.125 C-53.17518248 65.08759124 -53.17518248 65.08759124 -51 64 C-50.67 63.01 -50.34 62.02 -50 61 C-49.01 60.505 -49.01 60.505 -48 60 C-47.67 59.01 -47.34 58.02 -47 57 C-46.01 57 -45.02 57 -44 57 C-43.67 55.02 -43.34 53.04 -43 51 C-42.34 51 -41.68 51 -41 51 C-40.67 50.01 -40.34 49.02 -40 48 C-38.515 47.505 -38.515 47.505 -37 47 C-35.98812105 45.34051852 -34.9873454 43.67419438 -34 42 C-33.34 42 -32.68 42 -32 42 C-32 41.34 -32 40.68 -32 40 C-31.34 40 -30.68 40 -30 40 C-30 39.34 -30 38.68 -30 38 C-29.21625 37.5875 -28.4325 37.175 -27.625 36.75 C-24.26555333 34.51036889 -24.20690989 32.7715934 -23 29 C-21.37660195 27.29115995 -19.70680947 25.62553283 -18 24 C-16.65783025 22.00591923 -15.3227887 20.00698975 -14 18 C-13.34 17.67 -12.68 17.34 -12 17 C-11.505 15.515 -11.505 15.515 -11 14 C-9.66666667 13 -8.33333333 12 -7 11 C-6.67 10.01 -6.34 9.02 -6 8 C-5 7 -4 6 -3 5 C-2.67 4.01 -2.34 3.02 -2 2 C-1.34 2 -0.68 2 0 2 C0 1.34 0 0.68 0 0 Z " fill="#0F4461" transform="translate(284,201)"/>
<path d="M0 0 C0.9132605 0.00036255 1.826521 0.0007251 2.76745605 0.00109863 C3.72373901 0.01644653 4.68002197 0.03179443 5.6652832 0.04760742 C6.5468811 0.05062866 7.428479 0.0536499 8.33679199 0.0567627 C11.6300019 0.07245879 14.92304493 0.11434283 18.21606445 0.15307617 C25.57918945 0.21495117 32.94231445 0.27682617 40.52856445 0.34057617 C40.52856445 27.40057617 40.52856445 54.46057617 40.52856445 82.34057617 C38.11548704 78.72096005 38.2591523 76.10984246 38.30151367 71.93164062 C38.30122162 71.18017761 38.30092957 70.4287146 38.30062866 69.65447998 C38.30202192 67.17082164 38.3175828 64.68746335 38.33325195 62.20385742 C38.3369821 60.48178776 38.33982906 58.75971598 38.34182739 57.03764343 C38.34946372 52.50513856 38.36911221 47.97276185 38.39123535 43.44030762 C38.41529075 38.00211994 38.42447477 32.56388941 38.43614197 27.12566376 C38.45553661 18.86387875 38.49385911 10.60237498 38.52856445 2.34057617 C24.33856445 2.34057617 10.14856445 2.34057617 -4.47143555 2.34057617 C-4.47143555 15.9518958 -1.84726848 25.67932717 4.8840332 37.25854492 C6.52856445 40.34057617 6.52856445 40.34057617 6.52856445 43.34057617 C5.53856445 43.34057617 4.54856445 43.34057617 3.52856445 43.34057617 C3.44606445 42.55682617 3.36356445 41.77307617 3.27856445 40.96557617 C3.03106445 40.09932617 2.78356445 39.23307617 2.52856445 38.34057617 C1.89692383 38.08405273 1.2652832 37.8275293 0.61450195 37.56323242 C-2.50016813 35.73759247 -2.66151916 33.56669944 -3.59643555 30.15307617 C-3.92385742 28.97358398 -4.2512793 27.7940918 -4.58862305 26.57885742 C-4.87995117 25.51022461 -5.1712793 24.4415918 -5.47143555 23.34057617 C-6.09018555 21.60807617 -6.09018555 21.60807617 -6.72143555 19.84057617 C-7.88174743 14.4257874 -8.16296078 8.84303503 -7.47143555 3.34057617 C-5.24106131 0.36365056 -3.64458935 -0.0306268 0 0 Z " fill="#0D4465" transform="translate(126.471435546875,153.659423828125)"/>
<path d="M0 0 C2.29065959 2.29065959 2.35794815 3.14768889 2.875 6.25 C3.53552004 9.54211576 4.08540238 11.12810357 6 14 C8.56157343 17.84236015 9.24000287 21.50001702 10 26 C10.99 25.67 11.98 25.34 13 25 C13 27.31 13 29.62 13 32 C14.32 31.67 15.64 31.34 17 31 C17.2475 32.010625 17.495 33.02125 17.75 34.0625 C19.65064697 40.62237182 23.16359687 45.47346699 27.73046875 50.421875 C29 52 29 52 30 55 C31.010625 55.825 32.02125 56.65 33.0625 57.5 C34.031875 58.325 35.00125 59.15 36 60 C36 60.99 36 61.98 36 63 C37.65 63 39.3 63 41 63 C41.37125 63.825 41.7425 64.65 42.125 65.5 C45.51895431 71.83538137 49.34597484 76.56846676 55 81 C55.68449219 82.14855469 55.68449219 82.14855469 56.3828125 83.3203125 C58.59709205 86.98938441 61.44242139 89.88872204 64.35546875 93.01171875 C66 95 66 95 66 97 C66.66 97 67.32 97 68 97 C69.3671875 98.7578125 69.3671875 98.7578125 70.875 101.125 C71.40351563 101.94226563 71.93203125 102.75953125 72.4765625 103.6015625 C72.97929687 104.39304687 73.48203125 105.18453125 74 106 C76.38131362 110.12762639 76.38131362 110.12762639 80 113 C80.33 112.34 80.66 111.68 81 111 C80.67 113.31 80.34 115.62 80 118 C76.88850551 115.16304914 74.50822677 112.38012186 72.23828125 108.828125 C69.19615827 104.20366775 65.85646936 99.93469705 62.3125 95.6875 C61.3994812 94.58510986 61.3994812 94.58510986 60.46801758 93.46044922 C55.97219854 88.07017096 51.29600592 82.88741146 46.51171875 77.75390625 C43.29142188 74.22309864 40.28914905 70.54473872 37.296875 66.8203125 C35.28068689 64.34465296 33.21151894 61.92666739 31.11645508 59.51782227 C-1.06204691 22.30298514 -1.06204691 22.30298514 0 0 Z " fill="#1C577E" transform="translate(103,171)"/>
<path d="M0 0 C0.99 0.33 1.98 0.66 3 1 C-2.44311929 9.51559637 -8.33600129 17.48898295 -14.67138672 25.35107422 C-15.89214953 26.8661481 -17.10468472 28.38784168 -18.31640625 29.91015625 C-22.65300281 35.30181029 -27.19925746 40.45115869 -31.90966797 45.515625 C-35.72224252 49.63646161 -39.26493284 53.94145741 -42.79296875 58.30859375 C-45.12317934 61.1502134 -47.50690598 63.93127616 -49.9375 66.6875 C-50.66839844 67.51636719 -51.39929688 68.34523438 -52.15234375 69.19921875 C-54 71 -54 71 -56 71 C-54.69063102 68.07909997 -53.24380538 66.24380538 -51 64 C-50.67 63.01 -50.34 62.02 -50 61 C-49.01 60.505 -49.01 60.505 -48 60 C-47.67 59.01 -47.34 58.02 -47 57 C-46.01 57 -45.02 57 -44 57 C-43.505 54.03 -43.505 54.03 -43 51 C-42.34 51 -41.68 51 -41 51 C-40.67 50.01 -40.34 49.02 -40 48 C-38.515 47.505 -38.515 47.505 -37 47 C-35.98812105 45.34051852 -34.9873454 43.67419438 -34 42 C-33.34 42 -32.68 42 -32 42 C-32 41.34 -32 40.68 -32 40 C-31.34 40 -30.68 40 -30 40 C-30 39.34 -30 38.68 -30 38 C-28.824375 37.38125 -28.824375 37.38125 -27.625 36.75 C-24.26555333 34.51036889 -24.20690989 32.7715934 -23 29 C-21.37660195 27.29115995 -19.70680947 25.62553283 -18 24 C-16.65783025 22.00591923 -15.3227887 20.00698975 -14 18 C-13.34 17.67 -12.68 17.34 -12 17 C-11.505 15.515 -11.505 15.515 -11 14 C-9.66666667 13 -8.33333333 12 -7 11 C-6.67 10.01 -6.34 9.02 -6 8 C-5 7 -4 6 -3 5 C-2.67 4.01 -2.34 3.02 -2 2 C-1.34 2 -0.68 2 0 2 C0 1.34 0 0.68 0 0 Z " fill="#185177" transform="translate(284,201)"/>
<path d="M0 0 C0 8.91 0 17.82 0 27 C-1.90079939 23.19840121 -2.24412145 22.01795859 -2.1953125 18.015625 C-2.18886719 17.08105469 -2.18242187 16.14648438 -2.17578125 15.18359375 C-2.15064453 13.73146484 -2.15064453 13.73146484 -2.125 12.25 C-2.11597656 11.26644531 -2.10695313 10.28289062 -2.09765625 9.26953125 C-2.07412785 6.84610593 -2.04125368 4.42317778 -2 2 C-12.4623704 4.08084922 -22.35474802 6.27165091 -32 11 C-32.78503906 11.37898438 -33.57007813 11.75796875 -34.37890625 12.1484375 C-41.24682944 15.70781335 -47.77409781 20.44323605 -52.98046875 26.18359375 C-56.82807782 29.64420925 -61.35730076 29.11695274 -66.3125 29.0625 C-67.38113281 29.05347656 -68.44976562 29.04445313 -69.55078125 29.03515625 C-70.35902344 29.02355469 -71.16726562 29.01195313 -72 29 C-72.33 28.34 -72.66 27.68 -73 27 C-72.01 27.00902344 -71.02 27.01804687 -70 27.02734375 C-61.14698308 27.05150366 -61.14698308 27.05150366 -53.625 22.875 C-52.40334942 21.5959214 -51.19495182 20.30405612 -50 19 C-40.2840042 10.3168069 -28.70709105 4.71339388 -16 2 C-15.11183594 1.79632813 -14.22367188 1.59265625 -13.30859375 1.3828125 C-8.62659679 0.36407695 -4.90077821 0 0 0 Z " fill="#625A61" transform="translate(192,97)"/>
<path d="M0 0 C20.24849057 -1.28561845 44.7858574 7.72362036 60.2109375 20.88671875 C61.32477559 22.00811683 62.41334648 23.15547171 63.46875 24.33203125 C65.16695233 26.18185879 67.00120743 27.71505863 68.9375 29.3125 C73.56720621 33.30799988 77.63757363 37.88481946 81 43 C81 43.99 81 44.98 81 46 C79.35 46.33 77.7 46.66 76 47 C76 46.34 76 45.68 76 45 C76.99 45 77.98 45 79 45 C78.566875 44.51789063 78.13375 44.03578125 77.6875 43.5390625 C77.130625 42.90742187 76.57375 42.27578125 76 41.625 C75.443125 40.99851563 74.88625 40.37203125 74.3125 39.7265625 C73 38 73 38 73 36 C72.34 36 71.68 36 71 36 C69.74772516 34.52295788 68.49833478 33.04172601 67.31640625 31.5078125 C65.88235909 29.73237056 65.88235909 29.73237056 63 28 C63 27.34 63 26.68 63 26 C62.43925781 25.75121094 61.87851562 25.50242187 61.30078125 25.24609375 C58.62320438 23.79592903 56.51180867 22.02809646 54.1875 20.0625 C50.24971074 16.87093902 46.78653798 14.76346136 42 13 C40.28909967 12.19291939 38.58103252 11.37982005 36.875 10.5625 C26.83496904 6.02123259 17.01589741 3.60245109 6.1171875 2.4921875 C3 2 3 2 0 0 Z " fill="#696368" transform="translate(206,79)"/>
<path d="M0 0 C1.03253906 0.00902344 2.06507813 0.01804687 3.12890625 0.02734375 C4.27166016 0.04474609 4.27166016 0.04474609 5.4375 0.0625 C5.4375 0.7225 5.4375 1.3825 5.4375 2.0625 C4.88513672 2.10737549 4.33277344 2.15225098 3.76367188 2.19848633 C-18.49470756 3.75011631 -18.49470756 3.75011631 -39.64453125 10.29296875 C-41.5625 11.0625 -41.5625 11.0625 -44.5625 11.0625 C-44.5625 11.7225 -44.5625 12.3825 -44.5625 13.0625 C-45.490625 13.413125 -46.41875 13.76375 -47.375 14.125 C-61.48751208 20.2138661 -72.66104373 30.60209104 -82.5625 42.0625 C-82.5625 37.12527978 -78.81577071 34.53474086 -75.5625 31.0625 C-74.9953125 30.41925781 -74.428125 29.77601562 -73.84375 29.11328125 C-55.70732198 9.50525709 -26.24366853 -0.30165136 0 0 Z " fill="#6C676B" transform="translate(199.5625,77.9375)"/>
<path d="M0 0 C1.09771477 -0.00021904 1.09771477 -0.00021904 2.21760559 -0.0004425 C4.64168235 0.00025536 7.06568272 0.00804185 9.48974609 0.01586914 C11.16840574 0.01773377 12.84706593 0.01915746 14.52572632 0.02015686 C18.94805397 0.02397851 23.37034888 0.0338058 27.79266357 0.04486084 C32.30366574 0.05508253 36.81467319 0.05965611 41.32568359 0.06469727 C50.17986466 0.07542837 59.03402141 0.09250058 67.88818359 0.11352539 C67.88818359 0.44352539 67.88818359 0.77352539 67.88818359 1.11352539 C66.60991699 1.13858154 65.33165039 1.1636377 64.01464844 1.18945312 C59.15749262 1.28541989 54.30041906 1.38513466 49.44335938 1.48583984 C47.36265012 1.52848911 45.28192123 1.57019373 43.20117188 1.61083984 C32.04280503 1.82947258 20.89027138 2.10573622 9.73974609 2.58618164 C8.83501556 2.62327744 7.93028503 2.66037323 6.99813843 2.69859314 C2.55336147 2.90331704 -1.73350799 3.25588624 -6.11181641 4.11352539 C-6.23556641 4.64977539 -6.35931641 5.18602539 -6.48681641 5.73852539 C-7.11181641 8.11352539 -7.11181641 8.11352539 -8.08056641 10.64477539 C-9.39702118 15.07285053 -9.81538092 19.4010965 -10.23681641 23.98852539 C-10.32318359 24.86766602 -10.40955078 25.74680664 -10.49853516 26.65258789 C-10.70915947 28.80563647 -10.91134349 30.95950788 -11.11181641 33.11352539 C-11.44181641 33.11352539 -11.77181641 33.11352539 -12.11181641 33.11352539 C-12.73624356 9.70907053 -12.73624356 9.70907053 -9.11181641 1.11352539 C-6.1747364 -0.35501461 -3.21837936 -0.0166701 0 0 Z " fill="#054F7D" transform="translate(114.11181640625,136.886474609375)"/>
<path d="M0 0 C0.79497894 0.00444122 1.58995789 0.00888245 2.4090271 0.01345825 C3.76020126 0.01368484 3.76020126 0.01368484 5.13867188 0.01391602 C6.11266937 0.02423859 7.08666687 0.03456116 8.09017944 0.04519653 C9.08617157 0.04802643 10.0821637 0.05085632 11.1083374 0.05377197 C14.29771813 0.06499063 17.48682072 0.09009822 20.67611694 0.11550903 C22.83496706 0.12553666 24.99382157 0.13466288 27.15267944 0.14285278 C32.45225393 0.16493543 37.75166557 0.19842945 43.05111694 0.24050903 C42.72111694 1.56050903 42.39111694 2.88050903 42.05111694 4.24050903 C42.05111694 3.25050903 42.05111694 2.26050903 42.05111694 1.24050903 C27.86111694 1.24050903 13.67111694 1.24050903 -0.94888306 1.24050903 C-0.94888306 14.85182866 1.67528401 24.57926003 8.40658569 36.15847778 C10.05111694 39.24050903 10.05111694 39.24050903 10.05111694 42.24050903 C9.06111694 42.24050903 8.07111694 42.24050903 7.05111694 42.24050903 C6.96861694 41.45675903 6.88611694 40.67300903 6.80111694 39.86550903 C6.55361694 38.99925903 6.30611694 38.13300903 6.05111694 37.24050903 C5.41947632 36.9839856 4.78783569 36.72746216 4.13705444 36.46316528 C1.02238436 34.63752533 0.86103333 32.4666323 -0.07388306 29.05300903 C-0.40130493 27.87351685 -0.72872681 26.69402466 -1.06607056 25.47879028 C-1.35739868 24.41015747 -1.64872681 23.34152466 -1.94888306 22.24050903 C-2.56763306 20.50800903 -2.56763306 20.50800903 -3.19888306 18.74050903 C-4.36160579 13.31446961 -4.47424383 7.76452305 -3.94888306 2.24050903 C-1.94888306 0.24050903 -1.94888306 0.24050903 0 0 Z " fill="#205270" transform="translate(122.94888305664063,154.75949096679688)"/>
<path d="M0 0 C3.78104813 3.5518937 6.91124163 7.37275903 10.05859375 11.4921875 C12.09412061 14.12158034 14.19409648 16.68699327 16.3125 19.25 C21.35993534 25.38524469 26.18739979 31.68032248 31 38 C30.01 38.495 30.01 38.495 29 39 C25.7359659 35.82663352 22.78769488 32.59702565 20 29 C19.29875 28.154375 18.5975 27.30875 17.875 26.4375 C16 24 16 24 15.1640625 21.94921875 C13.62057334 19.36465133 12.36200213 19.14625382 9.5 18.375 C5.1838565 17.1838565 5.1838565 17.1838565 3 15 C2.73718808 13.06176212 2.48083975 11.12194264 2.28515625 9.17578125 C1.86759699 5.9897469 0.95734922 3.06351752 0 0 Z " fill="#195884" transform="translate(134,197)"/>
<path d="M0 0 C1.1055189 0.93590504 2.20935453 1.87379858 3.3125 2.8125 C3.92738281 3.33457031 4.54226562 3.85664063 5.17578125 4.39453125 C7.70126642 6.61717451 9.69045338 8.4801313 11.42578125 11.39453125 C13.62403242 15.03282786 16.46593221 17.91392732 19.35546875 21.01171875 C21 23 21 23 21 25 C21.66 25 22.32 25 23 25 C24.3671875 26.7578125 24.3671875 26.7578125 25.875 29.125 C26.66777344 30.35089844 26.66777344 30.35089844 27.4765625 31.6015625 C27.97929687 32.39304687 28.48203125 33.18453125 29 34 C31.38131362 38.12762639 31.38131362 38.12762639 35 41 C35.495 40.01 35.495 40.01 36 39 C35.67 41.31 35.34 43.62 35 46 C31.89197912 43.16621626 29.5152198 40.38913629 27.25 36.83984375 C24.15661769 32.13597938 20.73527919 27.81415448 17.125 23.5 C16.51366211 22.76096436 15.90232422 22.02192871 15.27246094 21.26049805 C12.02410143 17.35153549 8.70604532 13.54072471 5.25 9.8125 C2.45606846 6.74395125 0.85271231 4.15697251 0 0 Z " fill="#184D70" transform="translate(148,243)"/>
<path d="M0 0 C8.35973403 1.02188207 15.7494079 5.44391813 22 11 C22.58652344 11.48597656 23.17304688 11.97195312 23.77734375 12.47265625 C26.68271023 14.89082426 28.88067629 16.82101444 31 20 C32.92441415 20.50531866 32.92441415 20.50531866 35.1328125 20.51171875 C35.93847656 20.54716797 36.74414062 20.58261719 37.57421875 20.61914062 C38.41597656 20.64169922 39.25773437 20.66425781 40.125 20.6875 C41.39923828 20.73874023 41.39923828 20.73874023 42.69921875 20.79101562 C44.79901105 20.87359173 46.89948564 20.93846978 49 21 C49 21.66 49 22.32 49 23 C42.25766581 23.12910853 35.69613196 22.797837 29 22 C28.67 21.01 28.34 20.02 28 19 C26.68108693 18.30524065 25.34518991 17.64240667 24 17 C22.70194578 15.82095715 21.43360646 14.60881744 20.1875 13.375 C14.22162908 7.90962161 7.19257855 4.56312191 0 1 C0 0.67 0 0.34 0 0 Z " fill="#615D60" transform="translate(233,103)"/>
<path d="M0 0 C19.47 0 38.94 0 59 0 C58 6 58 6 56 8 C55.505 5.03 55.505 5.03 55 2 C37.18 2 19.36 2 1 2 C0.67 1.34 0.34 0.68 0 0 Z " fill="#0C5C8C" transform="translate(234,182)"/>
<path d="M0 0 C2.22679289 3.34018933 2.79403872 5.8386065 3.625 9.75 C4.01558594 11.53664062 4.01558594 11.53664062 4.4140625 13.359375 C4.99817434 16.98865658 5.17514992 20.3310701 5 24 C4 25 4 25 2.23413086 25.11352539 C1.48526611 25.10828857 0.73640137 25.10305176 -0.03515625 25.09765625 C-0.84404297 25.09443359 -1.65292969 25.09121094 -2.48632812 25.08789062 C-3.33646484 25.07951172 -4.18660156 25.07113281 -5.0625 25.0625 C-5.91650391 25.05798828 -6.77050781 25.05347656 -7.65039062 25.04882812 C-9.76695663 25.03700373 -11.88348685 25.01906769 -14 25 C-14 24.01 -14 23.02 -14 22 C-8.39 22.33 -2.78 22.66 3 23 C2.2884375 18.91625 2.2884375 18.91625 1.5625 14.75 C1.41498291 13.89889648 1.26746582 13.04779297 1.11547852 12.17089844 C0.99615967 11.4905957 0.87684082 10.81029297 0.75390625 10.109375 C0.63345947 9.41811523 0.5130127 8.72685547 0.38891602 8.01464844 C0.02397629 5.96594623 0.02397629 5.96594623 -0.60961914 3.86816406 C-1 2 -1 2 0 0 Z " fill="#174667" transform="translate(294,138)"/>
<path d="M0 0 C0.66 0 1.32 0 2 0 C1.67 20.46 1.34 40.92 1 62 C2.32 61.01 3.64 60.02 5 59 C4.43628586 62.26954202 3.50037734 63.82575883 1 66 C0 65 0 65 -0.12025452 62.41209412 C-0.11803391 61.25959671 -0.11581329 60.1070993 -0.11352539 58.91967773 C-0.11344986 57.61840439 -0.11337433 56.31713104 -0.11329651 54.97642517 C-0.10818909 53.54548098 -0.10297308 52.11453718 -0.09765625 50.68359375 C-0.09579203 49.2277074 -0.09436815 47.77182043 -0.09336853 46.31593323 C-0.08954365 42.47720621 -0.07971364 38.63851681 -0.06866455 34.79980469 C-0.05844978 30.88542184 -0.05387077 26.97103294 -0.04882812 23.05664062 C-0.03809134 15.37107657 -0.02101529 7.68554355 0 0 Z " fill="#0A527A" transform="translate(216,220)"/>
<path d="M0 0 C-1.502498 3.78156799 -3.66777677 5.56365239 -6.875 8 C-9.45048145 9.96812911 -11.81398733 11.79734028 -14.0078125 14.1875 C-17.82378092 17.65928303 -22.37855284 17.1167192 -27.3125 17.0625 C-28.38113281 17.05347656 -29.44976562 17.04445313 -30.55078125 17.03515625 C-31.35902344 17.02355469 -32.16726562 17.01195313 -33 17 C-33.33 16.34 -33.66 15.68 -34 15 C-33.01 15.00902344 -32.02 15.01804687 -31 15.02734375 C-22.14698308 15.05150366 -22.14698308 15.05150366 -14.625 10.875 C-13.41077006 9.58887486 -12.20266718 8.29694405 -11 7 C-9.39999708 5.6571404 -7.77453836 4.34402427 -6.125 3.0625 C-5.01511719 2.18271484 -5.01511719 2.18271484 -3.8828125 1.28515625 C-2 0 -2 0 0 0 Z " fill="#545155" transform="translate(153,109)"/>
<path d="M0 0 C2.26080377 3.39120565 4.19337436 6.91659555 6.125 10.5 C6.49753906 11.17675781 6.87007812 11.85351562 7.25390625 12.55078125 C10 17.65066964 10 17.65066964 10 21 C9.01 21 8.02 21 7 21 C6.9175 20.21625 6.835 19.4325 6.75 18.625 C6.5025 17.75875 6.255 16.8925 6 16 C5.04287109 15.59201172 5.04287109 15.59201172 4.06640625 15.17578125 C2 14 2 14 0.91796875 11.50390625 C0.67691406 10.53324219 0.43585938 9.56257812 0.1875 8.5625 C-0.06644531 7.59441406 -0.32039063 6.62632812 -0.58203125 5.62890625 C-1 3 -1 3 0 0 Z " fill="#1A587D" transform="translate(123,176)"/>
<path d="M0 0 C0.33 0 0.66 0 1 0 C1.33 4.29 1.66 8.58 2 13 C4.6707204 10.3292796 6.10133177 8.18976262 8 5 C9.31037934 3.31522656 10.63823078 1.64351457 12 0 C12.99 0.33 13.98 0.66 15 1 C14.48050781 1.64066406 13.96101562 2.28132813 13.42578125 2.94140625 C10.2089019 6.93128803 7.01900064 10.8926327 4.125 15.125 C3.42375 16.07375 2.7225 17.0225 2 18 C1.34 18 0.68 18 0 18 C0 12.06 0 6.12 0 0 Z " fill="#1B4D6B" transform="translate(215,272)"/>
<path d="M0 0 C6.86837477 6.64681429 13.69297809 13.38595618 18 22 C12.30734294 20.66055128 10.15500422 16.5146193 7 12 C6.278125 11.113125 5.55625 10.22625 4.8125 9.3125 C0 3.17241379 0 3.17241379 0 0 Z " fill="#114F6C" transform="translate(147,214)"/>
<path d="M0 0 C0.33 0 0.66 0 1 0 C1.33 4.62 1.66 9.24 2 14 C2.69867188 13.2059375 3.39734375 12.411875 4.1171875 11.59375 C5.036168 10.56224127 5.95545473 9.5310053 6.875 8.5 C7.33519531 7.97535156 7.79539063 7.45070312 8.26953125 6.91015625 C9.47172076 5.56858245 10.73245946 4.28000815 12 3 C12.66 3 13.32 3 14 3 C13.1875 5.4375 13.1875 5.4375 12 8 C11.01 8.33 10.02 8.66 9 9 C9 9.99 9 10.98 9 12 C7.46875 13.60546875 7.46875 13.60546875 5.5 15.1875 C4.8503125 15.71730469 4.200625 16.24710938 3.53125 16.79296875 C3.0259375 17.19128906 2.520625 17.58960938 2 18 C0 16 0 16 -0.1953125 12.3046875 C-0.182009 10.82799892 -0.15814835 9.35137642 -0.125 7.875 C-0.11146484 6.74384766 -0.11146484 6.74384766 -0.09765625 5.58984375 C-0.0740687 3.72642746 -0.03819719 1.86317407 0 0 Z " fill="#174968" transform="translate(234,219)"/>
<path d="M0 0 C14.52 0 29.04 0 44 0 C44.495 2.97 44.495 2.97 45 6 C44.01 6 43.02 6 42 6 C42.33 4.35 42.66 2.7 43 1 C28.81 1 14.62 1 0 1 C0 0.67 0 0.34 0 0 Z " fill="#023964" transform="translate(236,154)"/>
<path d="M0 0 C3.16115776 1.36983503 3.9927092 1.9890638 6 5 C7.92441415 5.50531866 7.92441415 5.50531866 10.1328125 5.51171875 C11.34130859 5.56489258 11.34130859 5.56489258 12.57421875 5.61914062 C13.41597656 5.64169922 14.25773437 5.66425781 15.125 5.6875 C16.39923828 5.73874023 16.39923828 5.73874023 17.69921875 5.79101562 C19.79901105 5.87359173 21.89948564 5.93846978 24 6 C24 6.66 24 7.32 24 8 C17.25766581 8.12910853 10.69613196 7.797837 4 7 C3.67 6.01 3.34 5.02 3 4 C0.99983534 2.79117904 0.99983534 2.79117904 -1 2 C-0.67 1.34 -0.34 0.68 0 0 Z " fill="#4D4A4D" transform="translate(258,118)"/>
<path d="M0 0 C0.66 0 1.32 0 2 0 C1.85756403 2.66688629 1.71113422 5.33345767 1.5625 8 C1.52318359 8.74378906 1.48386719 9.48757812 1.44335938 10.25390625 C1.16338273 15.20733918 0.66489429 20.08313469 0 25 C-0.33 25 -0.66 25 -1 25 C-1.02917228 21.77085248 -1.04685663 18.54173917 -1.0625 15.3125 C-1.07087891 14.40048828 -1.07925781 13.48847656 -1.08789062 12.54882812 C-1.09111328 11.66259766 -1.09433594 10.77636719 -1.09765625 9.86328125 C-1.10289307 9.05157471 -1.10812988 8.23986816 -1.11352539 7.40356445 C-0.9929791 4.85135327 -0.559949 2.48973863 0 0 Z " fill="#0F4F77" transform="translate(103,145)"/>
<path d="M0 0 C2.26444197 2.26444197 2.41656163 3.18694854 3 6.25 C3.57621007 9.11261162 4.22846658 11.66135063 5.1875 14.4375 C6 17 6 17 5 19 C2.38906455 17.69453228 2.31003364 16.72009785 1.375 14 C-0.1632708 9.1842075 -0.23943895 5.02821785 0 0 Z " fill="#164E74" transform="translate(103,171)"/>
<path d="M0 0 C1.1055189 0.93590504 2.20935453 1.87379858 3.3125 2.8125 C3.92738281 3.33457031 4.54226562 3.85664063 5.17578125 4.39453125 C9.97325976 8.61672326 9.97325976 8.61672326 10.1875 11.6875 C10.125625 12.450625 10.06375 13.21375 10 14 C5.3478325 10.80994228 2.53009634 6.97406173 0 2 C0 1.34 0 0.68 0 0 Z " fill="#144F80" transform="translate(148,243)"/>
<path d="M0 0 C1.2109375 1.546875 1.2109375 1.546875 2 4 C0.99212459 6.60515164 -0.03627093 8.82847536 -1.375 11.25 C-1.71789062 11.8996875 -2.06078125 12.549375 -2.4140625 13.21875 C-3.26183672 14.82010131 -4.12908679 16.41111444 -5 18 C-6.02362719 15.33610275 -6.10424058 14.26441513 -5.0390625 11.5625 C-4.57242187 10.716875 -4.10578125 9.87125 -3.625 9 C-1.9862813 5.99720819 -0.67003519 3.36575816 0 0 Z " fill="#1C4B6C" transform="translate(293,182)"/>
<path d="M0 0 C3.29164829 -0.02895225 6.58326399 -0.0467823 9.875 -0.0625 C10.81214844 -0.07087891 11.74929688 -0.07925781 12.71484375 -0.08789062 C14.05869141 -0.09272461 14.05869141 -0.09272461 15.4296875 -0.09765625 C16.67081299 -0.10551147 16.67081299 -0.10551147 17.93701172 -0.11352539 C20 0 20 0 22 1 C22.625 3.5625 22.625 3.5625 23 6 C22.34 6 21.68 6 21 6 C20.65324219 5.35546875 20.30648438 4.7109375 19.94921875 4.046875 C17.24606662 1.20829441 15.13947592 1.44564286 11.33789062 1.29296875 C10.50451172 1.27878906 9.67113281 1.26460937 8.8125 1.25 C7.96751953 1.22035156 7.12253906 1.19070312 6.25195312 1.16015625 C4.16848178 1.0895301 2.08423494 1.04249205 0 1 C0 0.67 0 0.34 0 0 Z " fill="#0C5C8D" transform="translate(271,138)"/>
<path d="M0 0 C0.33 0.99 0.66 1.98 1 3 C-0.1875 5.1875 -0.1875 5.1875 -2 7 C-3.32 7 -4.64 7 -6 7 C-6 6.01 -6 5.02 -6 4 C-5.34 4 -4.68 4 -4 4 C-3.67 3.01 -3.34 2.02 -3 1 C-2.01 0.67 -1.02 0.34 0 0 Z " fill="#104F86" transform="translate(247,248)"/>
<path d="M0 0 C1 3 1 3 -0.21484375 5.69921875 C-0.78332031 6.68535156 -1.35179687 7.67148437 -1.9375 8.6875 C-2.50339844 9.68136719 -3.06929687 10.67523438 -3.65234375 11.69921875 C-4.31943359 12.83810547 -4.31943359 12.83810547 -5 14 C-5.99 13.67 -6.98 13.34 -8 13 C-7.59007812 12.39671875 -7.18015625 11.7934375 -6.7578125 11.171875 C-6.21898437 10.37265625 -5.68015625 9.5734375 -5.125 8.75 C-4.59132812 7.96109375 -4.05765625 7.1721875 -3.5078125 6.359375 C-2.18177985 4.28444308 -1.05071825 2.22385028 0 0 Z " fill="#625860" transform="translate(206,306)"/>
<path d="M0 0 C0.33 0 0.66 0 1 0 C1.06058594 0.89203125 1.12117187 1.7840625 1.18359375 2.703125 C1.26738281 3.87359375 1.35117188 5.0440625 1.4375 6.25 C1.51871094 7.41015625 1.59992188 8.5703125 1.68359375 9.765625 C1.93247787 12.30977376 2.28114942 14.55953248 3 17 C2.01 17.33 1.02 17.66 0 18 C0 12.06 0 6.12 0 0 Z " fill="#264E60" transform="translate(215,272)"/>
<path d="M0 0 C1.9375 0.375 1.9375 0.375 4 1 C4.33 1.66 4.66 2.32 5 3 C5.99 3.33 6.98 3.66 8 4 C9.1875 7.5625 9.1875 7.5625 10 11 C6.40365256 7.50640535 3.16548033 3.88901869 0 0 Z " fill="#2E5E7D" transform="translate(140,237)"/>
<path d="M0 0 C1.66666667 1.66666667 3.33333333 3.33333333 5 5 C5.61875 5.515625 6.2375 6.03125 6.875 6.5625 C7.431875 7.2740625 7.431875 7.2740625 8 8 C7.6875 10.1875 7.6875 10.1875 7 12 C0 3.55172414 0 3.55172414 0 0 Z " fill="#215470" transform="translate(147,214)"/>
<path d="M0 0 C2.62506802 -0.02690844 5.24986173 -0.04679404 7.875 -0.0625 C8.62136719 -0.07087891 9.36773437 -0.07925781 10.13671875 -0.08789062 C15.7734375 -0.11328125 15.7734375 -0.11328125 18 1 C17.67 1.99 17.34 2.98 17 4 C16.01 3.34 15.02 2.68 14 2 C11.61322924 1.70547416 9.21373906 1.5071783 6.8125 1.375 C5.54019531 1.30023438 4.26789063 1.22546875 2.95703125 1.1484375 C1.49330078 1.07496094 1.49330078 1.07496094 0 1 C0 0.67 0 0.34 0 0 Z " fill="#175479" transform="translate(248,199)"/>
<path d="M0 0 C2.475 0.99 2.475 0.99 5 2 C5.33 1.34 5.66 0.68 6 0 C5.67 2.31 5.34 4.62 5 7 C3.29115995 5.37660195 1.62553283 3.70680947 0 2 C0 1.34 0 0.68 0 0 Z " fill="#26526C" transform="translate(178,282)"/>
<path d="M0 0 C0.99 0.33 1.98 0.66 3 1 C0.69 3.64 -1.62 6.28 -4 9 C-4 5.00095031 -2.27413033 3.19799578 0 0 Z " fill="#2B5A79" transform="translate(262,231)"/>
<path d="M0 0 C2.96404505 2.80804268 5.44499019 5.18315774 7 9 C3.73539027 7.19587357 2.11070205 6.16605307 0 3 C0 2.01 0 1.02 0 0 Z " fill="#174E74" transform="translate(123,213)"/>
<path d="M0 0 C0.66 0.33 1.32 0.66 2 1 C2 1.66 2 2.32 2 3 C3.32 3.33 4.64 3.66 6 4 C6 4.33 6 4.66 6 5 C4.02 5 2.04 5 0 5 C-0.5625 3.0625 -0.5625 3.0625 -1 1 C-0.67 0.67 -0.34 0.34 0 0 Z " fill="#646065" transform="translate(114,121)"/>
<path d="M0 0 C0.99 0.33 1.98 0.66 3 1 C1.35 2.98 -0.3 4.96 -2 7 C-2.66 5.68 -3.32 4.36 -4 3 C-3.01 3 -2.02 3 -1 3 C-0.67 2.01 -0.34 1.02 0 0 Z " fill="#1A5676" transform="translate(241,255)"/>
<path d="M0 0 C1.99097846 2.98646769 2.94124926 5.59687262 4 9 C1 8 1 8 -0.25 5.625 C-1 3 -1 3 0 0 Z " fill="#295978" transform="translate(123,176)"/>
<path d="M0 0 C1.98362069 2.91708924 1.9876191 4.12380904 1.625 7.75 C1.41875 8.8225 1.2125 9.895 1 11 C-0.98362069 8.08291076 -0.9876191 6.87619096 -0.625 3.25 C-0.41875 2.1775 -0.2125 1.105 0 0 Z " fill="#235B81" transform="translate(105,138)"/>
</svg>
